<svg xmlns="http://www.w3.org/2000/svg" width="104" height="56" fill="none"><path fill="#8E8F99" fill-rule="evenodd" d="m38 7 7 6.68-13-.01v32.4h34v-12.4l7 6.67V7H38Zm27.7 25.9L45.81 13.95H65.7V32.9Zm-6.18 8.42H37.38V19.54h1.57v20.3h20.57v1.48ZM41.8 52.06l-.83-1.7h-.68l1.2 2.25v1.3h.61v-1.3l1.2-2.25h-.68l-.82 1.7Zm3.04-1.7h.14l1.35 3.56h-.65l-.28-.83h-1.38l-.29.83h-.64l1.34-3.56H44.84Zm-.65 2.24h1.04l-.52-1.5-.52 1.5Zm4.3-.59a1.82 1.82 0 0 1-.29-.45.95.95 0 0 1 .04-.83.77.77 0 0 1 .32-.3c.14-.08.3-.11.49-.11.18 0 .33.03.46.1a.77.77 0 0 1 .35.99.9.9 0 0 1-.17.25c-.07.08-.15.15-.25.22l-.24.18.7.83a1.4 1.4 0 0 0 .16-.66h.5c0 .17-.01.33-.05.49a1.52 1.52 0 0 1-.26.58l.52.62h-.68l-.2-.24c-.12.08-.24.15-.37.2a1.62 1.62 0 0 1-1.16-.04.97.97 0 0 1-.4-.36.97.97 0 0 1-.05-.9c.06-.1.14-.21.24-.3.1-.1.2-.18.33-.27Zm.28.36-.07.05a.91.91 0 0 0-.2.2.6.6 0 0 0-.03.6c.05.09.11.16.2.2.09.06.2.08.32.08a.9.9 0 0 0 .57-.2l-.79-.93Zm.14-.65.22-.15a.8.8 0 0 0 .22-.2.44.44 0 0 0 .07-.25.35.35 0 0 0-.37-.34.36.36 0 0 0-.34.21.5.5 0 0 0 .01.44l.15.24.04.05Zm6.22 1.04h-.6a1.1 1.1 0 0 1-.12.4.55.55 0 0 1-.25.24.92.92 0 0 1-.42.08.75.75 0 0 1-.37-.09.7.7 0 0 1-.25-.24 1.2 1.2 0 0 1-.15-.37c-.03-.15-.04-.31-.04-.49V52c0-.19.01-.36.05-.5.03-.15.09-.28.16-.38.07-.1.15-.17.26-.23a.8.8 0 0 1 .36-.07c.17 0 .31.03.42.08.1.06.18.14.24.25.05.11.09.24.1.4h.62c-.03-.24-.1-.45-.2-.64-.11-.18-.26-.32-.46-.43a1.5 1.5 0 0 0-.72-.15c-.22 0-.42.03-.6.11s-.33.2-.46.34c-.12.15-.22.33-.29.53-.07.2-.1.44-.1.7v.3c0 .25.03.48.1.68.07.21.16.39.29.53a1.3 1.3 0 0 0 1.04.46c.29 0 .53-.05.73-.16.2-.1.36-.25.47-.43.1-.18.17-.39.2-.62Zm3.4-.52v-.2c0-.26-.04-.5-.11-.72-.07-.2-.17-.4-.3-.54a1.28 1.28 0 0 0-.47-.34 1.47 1.47 0 0 0-.6-.12c-.22 0-.42.04-.6.12-.18.07-.33.19-.46.34-.13.15-.24.33-.3.54-.08.22-.11.46-.11.72v.2c0 .27.03.5.1.72.08.22.18.4.31.55a1.34 1.34 0 0 0 1.06.46c.22 0 .42-.04.6-.12.19-.08.34-.2.47-.34.13-.15.23-.33.3-.55.07-.21.1-.45.1-.72Zm-.62-.2v.2c0 .2-.02.37-.06.53-.03.15-.09.28-.16.38a.73.73 0 0 1-.27.24.81.81 0 0 1-.37.08.8.8 0 0 1-.36-.08.77.77 0 0 1-.27-.24c-.07-.1-.13-.23-.17-.38a2.14 2.14 0 0 1-.06-.53v-.2c0-.2.02-.37.06-.53.04-.15.1-.28.17-.38.07-.1.16-.18.27-.23.1-.06.22-.08.36-.08a.8.8 0 0 1 .36.08c.11.05.2.13.27.23.08.1.14.23.17.38.04.16.06.33.06.53Z" clip-rule="evenodd"/></svg>