<svg xmlns="http://www.w3.org/2000/svg" width="104" height="56" fill="none"><path fill="#8E8F99" d="M24.08 21.52c-2.39 0-4.32 1.74-4.32 3.9 0 2.15 1.93 3.89 4.32 3.89 2.38 0 4.32-1.74 4.32-3.9 0-2.15-1.94-3.9-4.32-3.9ZM55.96 20.27c0-2.98-1.32-5.85-3.67-7.96A13.25 13.25 0 0 0 43.46 9c-3.31 0-6.49 1.2-8.83 3.3a10.77 10.77 0 0 0-3.67 7.97v16.48s25-2.51 25-16.47ZM11 42.15a7.5 7.5 0 0 0 2.55 5.55A9.23 9.23 0 0 0 19.7 50c2.3 0 4.51-.83 6.14-2.3a7.5 7.5 0 0 0 2.56-5.54V30.69S11 32.44 11 42.15Zm8.7 2.06c-.45 0-.9-.12-1.27-.35a2.12 2.12 0 0 1-.84-.92 1.87 1.87 0 0 1-.13-1.19 2 2 0 0 1 .63-1.05c.32-.29.72-.48 1.16-.56.45-.08.9-.04 1.32.12.42.15.77.42 1.02.75a1.91 1.91 0 0 1-.28 2.6c-.2.2-.46.35-.74.45-.27.1-.57.16-.87.16v-.01ZM35.6 40.52v4.26h-.87v-4.27h.88Zm1.7 1.82v.68h-1.93v-.68h1.94Zm.21-1.83v.7h-2.14v-.7h2.14Zm4.02 2.04v.2c0 .32-.05.62-.13.87-.1.26-.22.48-.38.66-.16.18-.35.32-.57.42-.22.1-.47.14-.74.14a1.65 1.65 0 0 1-1.31-.56c-.16-.18-.28-.4-.37-.66a2.7 2.7 0 0 1-.14-.87v-.2c0-.33.05-.62.14-.87.08-.26.2-.48.37-.66.16-.19.35-.32.57-.42.22-.1.47-.14.74-.14s.51.04.73.14c.23.1.42.23.58.42.16.18.28.4.37.66.1.25.14.54.14.87Zm-.9.2v-.2c0-.23-.01-.43-.05-.6a1.3 1.3 0 0 0-.18-.44.78.78 0 0 0-.7-.35.8.8 0 0 0-.69.35c-.07.12-.13.26-.17.43-.04.18-.06.38-.06.6v.21c0 .23.02.42.06.6.04.17.1.32.18.43.08.12.18.21.3.27.11.06.24.1.4.1.14 0 .27-.04.39-.1a.79.79 0 0 0 .29-.27c.08-.11.14-.26.18-.43.04-.18.06-.38.06-.6Zm3.75.91a.56.56 0 0 0-.03-.2.39.39 0 0 0-.13-.17l-.25-.16c-.11-.05-.25-.1-.43-.15l-.55-.21a2.26 2.26 0 0 1-.46-.28c-.13-.1-.23-.23-.3-.36a1 1 0 0 1-.12-.49 1 1 0 0 1 .12-.48c.08-.15.19-.27.33-.38.14-.1.3-.18.5-.24a2.25 2.25 0 0 1 1.46.09c.23.11.41.26.54.46.13.2.2.42.2.68h-.88a.66.66 0 0 0-.08-.33.54.54 0 0 0-.23-.22.84.84 0 0 0-.4-.09.9.9 0 0 0-.37.07.5.5 0 0 0-.23.19.45.45 0 0 0-.08.26c0 .07.02.13.05.2l.17.16a3.86 3.86 0 0 0 .63.28c.23.06.44.14.61.23.18.09.33.19.45.3a1.1 1.1 0 0 1 .36.84c0 .18-.04.35-.1.5-.08.14-.19.27-.32.37-.14.1-.3.18-.5.23a2.37 2.37 0 0 1-1.81-.26c-.17-.11-.3-.26-.4-.43-.1-.18-.15-.39-.15-.63h.88c0 .14.02.25.06.34.05.1.1.17.18.22.07.06.16.1.27.13.1.02.22.04.34.04.15 0 .28-.03.38-.07a.46.46 0 0 0 .29-.44Zm3.38-3.14v4.26h-.87v-4.27h.87Zm1.32 0v.68H45.6v-.69h3.48Zm3.36 3.58v.68h-2.27v-.68h2.27Zm-1.98-3.59v4.27h-.88v-4.27h.88Zm1.68 1.74v.67h-1.97v-.67h1.97Zm.3-1.73v.68h-2.27v-.69h2.27Zm.51 0h1.6c.32 0 .6.04.83.14.24.1.42.24.55.44.13.19.19.42.19.7 0 .23-.04.43-.12.59-.07.16-.18.3-.32.4-.14.11-.3.2-.5.27l-.27.14h-1.38v-.68h1.02a.8.8 0 0 0 .38-.09c.1-.05.18-.13.23-.22a.7.7 0 0 0 .08-.34.77.77 0 0 0-.08-.36.51.51 0 0 0-.23-.23.85.85 0 0 0-.39-.08h-.7v3.58h-.89v-4.27Zm2.39 4.26-.98-1.9h.93l.99 1.86v.04h-.94Zm4.61-1.52h-1.09v-.69h1.1a.9.9 0 0 0 .4-.08c.1-.05.18-.13.23-.23.05-.1.08-.21.08-.34a.86.86 0 0 0-.08-.35.6.6 0 0 0-.23-.27.76.76 0 0 0-.4-.1h-.8v3.58h-.87v-4.27h1.66c.34 0 .62.07.86.19a1.3 1.3 0 0 1 .74 1.22c0 .27-.06.5-.19.71-.13.2-.31.36-.55.47-.24.1-.52.16-.86.16Zm5.07.84v.68h-2.27v-.68h2.27Zm-1.98-3.59v4.27h-.88v-4.27h.88Zm1.68 1.74v.67h-1.97v-.67h1.97Zm.3-1.73v.68h-2.27v-.69h2.27Zm2.48 0v4.26h-.88v-4.27h.88Zm1.31 0v.68h-3.48v-.69h3.48Zm3.36 3.58v.68H69.9v-.68h2.27ZM70.2 40.5v4.27h-.88v-4.27h.88Zm1.69 1.74v.67H69.9v-.67h1.98Zm.3-1.73v.68H69.9v-.69h2.27Zm.5 0h1.6c.32 0 .6.04.84.14.23.1.42.24.54.44.13.19.2.42.2.7 0 .23-.05.43-.12.59-.08.16-.19.3-.33.4-.14.11-.3.2-.49.27l-.28.14h-1.38v-.68h1.02a.8.8 0 0 0 .39-.09c.1-.05.18-.13.23-.22a.7.7 0 0 0 .08-.34.77.77 0 0 0-.08-.36.51.51 0 0 0-.23-.23.85.85 0 0 0-.4-.08h-.7v3.58h-.88v-4.27Zm2.4 4.26-.98-1.9h.93l.98 1.86v.04h-.94Zm3.67-1.12a.56.56 0 0 0-.03-.2.39.39 0 0 0-.13-.17l-.25-.16c-.11-.05-.25-.1-.43-.15l-.55-.21a2.26 2.26 0 0 1-.45-.28 1 1 0 0 1-.42-.85 1 1 0 0 1 .11-.48c.08-.15.19-.27.33-.38.14-.1.3-.18.5-.24a2.25 2.25 0 0 1 1.46.09c.23.11.41.26.54.46.13.2.2.42.2.68h-.88a.66.66 0 0 0-.07-.33.54.54 0 0 0-.24-.22.84.84 0 0 0-.4-.09.9.9 0 0 0-.37.07.5.5 0 0 0-.23.19.45.45 0 0 0-.08.26c0 .07.02.13.06.2.03.05.09.1.16.16a3.86 3.86 0 0 0 .63.28c.23.06.44.14.61.23.18.09.33.19.45.3a1.1 1.1 0 0 1 .36.84c0 .18-.04.35-.1.5-.08.14-.18.27-.32.37-.14.1-.3.18-.5.23a2.37 2.37 0 0 1-1.81-.26c-.17-.11-.3-.26-.4-.43-.1-.18-.15-.39-.15-.63h.88c0 .14.02.25.07.34.04.1.1.17.17.22.07.06.16.1.27.13.1.02.22.04.34.04.16 0 .28-.03.38-.07a.46.46 0 0 0 .3-.44Z"/></svg>